<svg xmlns="http://www.w3.org/2000/svg" id="Layer_1" data-name="Layer 1" viewBox="0 0 20 20"><defs><style>.cls-1{fill:#424242;}</style></defs><path d="M16.5 12.3H9a1.6 1.6 0 0 1-1.25-.36 1.67 1.67 0 0 1-.3-.56 33.54 33.54 0 0 1-1.2-5.32Q6 4.64 5.62 3.23a2.8 2.8 0 0 0-.84-1.6 2.42 2.42 0 0 0-1.08-.37 1.52 1.52 0 0 0-1.4.27.8.8 0 0 0 .3 1.25c.53.18.94.1 1.37.55a3.86 3.86 0 0 1 .85 1.9c.2 1 .3 2 .58 3 .14.5.34 1 .5 1.45.35 1.17.46 2.4.8 3.58a.67.67 0 0 0 .14.28.55.55 0 0 0 .26.13c1.14.3 2.33-.17 3.5-.16a11.57 11.57 0 0 1 1.37.2 30.67 30.67 0 0 0 4.12.2 1.9 1.9 0 0 0 1-.2.76.76 0 0 0 .3-1 1 1 0 0 0-.9-.32z" class="cls-1"/><path d="M10.83 8.93c-.52 0-1.53 0-2 .36s.24.8.68.8h1.9a19.3 19.3 0 0 0 5.5-.4c.2-.05.5-.24.3-.4a2.4 2.4 0 0 0-1.7-.5 42.62 42.62 0 0 0-4.6.05zm-2.46-2.2a1.24 1.24 0 0 0 .77.13l1.66-.06a22.14 22.14 0 0 0 2.32 0q1.5-.08 3-.23a1.2 1.2 0 0 0 .7-.22.5.5 0 0 0 .08-.68.6.6 0 0 0-.43-.1q-3.93 0-7.84.34a.63.63 0 0 0-.38.1.5.5 0 0 0 .12.8zm9.4-3.87a.85.85 0 0 0-.63-.16l-7.63.1a1.68 1.68 0 0 0-1 .26.48.48 0 0 0-.2.43.53.53 0 0 0 .3.3 4.94 4.94 0 0 0 2.6.3c1.86 0 3.7-.07 5.5-.1a1.68 1.68 0 0 0 1-.25.68.68 0 0 0 .1-.96zm-8 13.42a1.84 1.84 0 0 0-1.07-.6 1.1 1.1 0 0 0-1.23.46c-.68 1.17.54 3 1.8 2.17a1.1 1.1 0 0 0 .4-.5 3.92 3.92 0 0 0 .12-.5 1.7 1.7 0 0 0 0-.7.7.7 0 0 0-.1-.24zm-1.14 1v-.02zM14.7 16a1.16 1.16 0 0 0-.78.8 2.66 2.66 0 0 0 0 1.13.66.66 0 0 0 .3.43 1 1 0 0 0 .3.28 1.38 1.38 0 0 0 1.1.06 1.44 1.44 0 0 0 .78-1.95 1.6 1.6 0 0 0-1.7-.75z" class="cls-1"/></svg>