<?xml version="1.0" encoding="utf-8"?>
<!-- Generator: Adobe Illustrator 21.0.0, SVG Export Plug-In . SVG Version: 6.00 Build 0)  -->
<svg version="1.1" id="Layer_1" xmlns="http://www.w3.org/2000/svg" xmlns:xlink="http://www.w3.org/1999/xlink" x="0px" y="0px"
	 viewBox="0 0 50 50" style="enable-background:new 0 0 50 50;" xml:space="preserve">
<style type="text/css">
	.st0{fill:#FF7900;}
</style>
<path class="st0" d="M46.7,36.6c-0.5-6.6,0.3-13.2,0-19.8c0.1-0.6-0.2-1.2-0.6-1.6c-0.3-0.1-0.5-0.2-0.8-0.2c-1.9-0.1-3.9,0-5.8,0.1
	c-0.2-3.6-0.5-7.2-0.8-10.8c0-0.2-0.1-0.4-0.2-0.6c-0.1-0.2-0.3-0.3-0.5-0.3c-0.8-0.2-1.6-0.3-2.4-0.3L5.1,2.3c-0.2,0-0.5,0-0.7,0.1
	C3.8,2.7,3.7,3.5,3.7,4.2L3.2,23.5c-0.1,0.6,0,1.2,0.3,1.8c0.2,0.4,0.6,0.6,1,0.6h0.1c1.3,0,2.7,0.2,4,0.4c0.5,0.7,0.8,1.5,1,2.4
	c0.6,2.1,0.9,4.3,1,6.4c0,0.4,0,0.8,0.1,1.2c0.1,0.4,0.5,0.7,0.8,0.7s0.6-0.4,0.8-0.7l5.4-8.8c0.1-0.2,0.3-0.4,0.5-0.6
	c0.2-0.1,0.5-0.2,0.8-0.2h0.8c-0.6,1.9-0.5,5.7-0.5,6.3s0,6.1,0.2,6.1c3.5,0.3,7,0.4,10.5,0.3c0.9-0.1,1.7,0,2.5,0.3
	c0.7,0.4,1.3,0.9,1.8,1.5c1.8,2.1,3.7,4,5.7,5.9c0.5,0.4,1.2,0.8,1.6,0.3c0.1-0.2,0.2-0.4,0.2-0.7c0.1-1.6-0.6-3.2-0.4-4.7
	c0-0.2,0.1-0.4,0.2-0.5c0.2-0.2,0.6-0.3,0.9-0.2c1.1,0.1,2.3,0,3.4-0.3c0.3,0,0.5-0.2,0.7-0.4c0.1-0.2,0.2-0.5,0.2-0.7
	C46.8,38.8,46.8,37.7,46.7,36.6L46.7,36.6z M17.7,24.7c-0.5-0.1-1.1,0.1-1.6,0.3c-0.4,0.3-0.6,0.7-0.8,1.2c-1,2.3-1.6,4.9-3.2,6.8
	l-1.2-9.1c0-0.1-3.1-0.1-3.4-0.1c-0.9-0.2-1.8-0.3-2.6-0.3c0.1-5.3,0.1-10.7,0-16c0-0.8,0.1-1.8,0.7-2C5.8,5.3,6,5.3,6.2,5.3
	l28.5,0.3c0.8-0.1,1.5,0.1,2.2,0.4c0.6,4.2,0.7,8.5,0.3,12.7C37,20.3,37,22,37.4,23.5c0.1,0.2,0.1,0.4,0.1,0.6
	c-0.1,0.2-0.4,0.3-0.6,0.3C30.5,24.7,24.1,24.8,17.7,24.7L17.7,24.7z M45,27.7l-0.5,10.9c-1.4-0.1-2.8,0-4.2,0.2
	c-0.3,1.4,0,3.4-0.4,5c-1.4-1.8-3.1-3.4-4.9-4.8c-0.4-0.3-0.9-0.6-1.3-0.8c-0.9-0.3-1.8-0.5-2.7-0.5l-8.7-0.4c-0.2,0-0.4,0-0.5-0.2
	c-0.1-0.2-0.2-0.4-0.2-0.6c-0.2-1.9-0.3-3.7-0.4-5.6c0.1-1.5,0.2-3,0.2-4.5c4.3-0.1,8.5,0,12.8,0.2c1.7,0.2,3.5,0.1,5.2-0.3
	c0.3-3,0.4-6.1,0.3-9.1l5-0.1c0.5,3.5,0.7,7,0.4,10.5L45,27.7z"/>
<path class="st0" d="M14.4,11.5c-0.1,0-0.3,0-0.4,0.1c-0.5-0.1-1,0.1-1.3,0.4c-0.5,0.6-0.6,1.5-0.4,2.2c0.1,0.3,0.3,0.7,0.6,0.9
	c0.1,0,0.1,0.1,0.2,0.1c0.5,0.6,1.4,0.8,2.1,0.3c0.9-0.6,1.2-1.7,0.7-2.7C15.9,12.1,15.2,11.5,14.4,11.5L14.4,11.5z M24.2,14.5
	c0.6-1,0.2-2.4-0.8-3c-1-0.6-2.4-0.2-3,0.8c-0.1,0.2-0.2,0.4-0.2,0.6c-0.3,0.7-0.1,1.5,0.5,2c0.2,0.3,0.5,0.6,0.9,0.8
	c0.5,0.1,1,0.1,1.4-0.1C23.6,15.5,24.1,15.1,24.2,14.5L24.2,14.5z M22.9,14.3c0,0.1-0.1,0.1-0.1,0.2C22.8,14.4,22.9,14.4,22.9,14.3
	L22.9,14.3z M30.3,15.7h0.2c0.3,0.2,0.6,0.3,1,0.3c0.4,0,0.8-0.2,1-0.6c0.2-0.3,0.3-0.6,0.3-1c0.1-0.8-0.4-1.7-1.1-2
	c-0.2-0.2-0.4-0.4-0.7-0.5c-0.7-0.2-1.4,0.2-1.6,1c0,0,0,0,0,0l-0.1,0.4c-0.1,0.4,0,0.8,0.2,1.2c0,0.6,0.4,1,1,1.2L30.3,15.7z
	 M31.9,13.7v-0.2C31.9,13.6,31.9,13.7,31.9,13.7L31.9,13.7z"/>
</svg>
