<svg id="Layer_1" data-name="Layer 1" xmlns="http://www.w3.org/2000/svg" viewBox="0 0 104.26 17.81"><defs><style>.cls-1{fill:#424242;}.cls-2{fill:#f39846;}.cls-3{fill:#fad75b;}.cls-4{fill:#83c55e;}.cls-5{fill:#57c2b2;}.cls-6{fill:#2b7eb7;}.cls-7{fill:#7c569e;}.cls-8{fill:#ec575a;}.cls-9{fill:#cd4374;}</style></defs><title>DEADDDDDLINE</title><path class="cls-1" d="M19.62,7.34h.85L21.55,9.5h1.9L22.14,7.14a2,2,0,0,0,1.28-1.93,2.07,2.07,0,0,0-2.24-2.14H18V9.5h1.66Zm0-2.82h1.31a.7.7,0,1,1,0,1.38H19.62Z"/><path class="cls-1" d="M27.86,9.62c2.05,0,3-1.13,3-2.73V3.07H29.21V6.84a1.35,1.35,0,0,1-2.71,0V3.07H24.81V6.9C24.81,8.48,25.79,9.62,27.86,9.62Z"/><path class="cls-1" d="M35.06,5.41C34.45,5.27,34,5.16,34,4.85s.21-.46.69-.46a3,3,0,0,1,1.88.66l.91-1.19A3.92,3.92,0,0,0,34.82,3c-1.65,0-2.56,1-2.56,2,0,1.58,1.49,1.87,2.54,2.08.62.13,1.1.23,1.1.57s-.35.53-.92.53a2.9,2.9,0,0,1-2.05-.85l-.88,1.24a3.93,3.93,0,0,0,2.85,1c1.73,0,2.68-.86,2.68-2.15C37.59,6,36.12,5.64,35.06,5.41Z"/><polygon class="cls-1" points="43.16 5.47 40.49 5.47 40.49 3.07 38.84 3.07 38.84 9.5 40.49 9.5 40.49 6.92 43.16 6.92 43.16 9.5 44.82 9.5 44.82 3.07 43.16 3.07 43.16 5.47"/><path class="cls-1" d="M49.56,3a3.19,3.19,0,0,0-3.29,3.33,3.29,3.29,0,1,0,6.57,0A3.19,3.19,0,0,0,49.56,3Zm0,5.65a2.13,2.13,0,0,1-2.13-2.32,2.14,2.14,0,1,1,4.26,0A2.14,2.14,0,0,1,49.56,8.61Z"/><path class="cls-1" d="M59.39,9.5,57.81,7a1.8,1.8,0,0,0,1.52-1.89,2,2,0,0,0-2.1-2H54.41V9.5h1.13V7.1h1.12l1.43,2.4ZM55.54,6.11v-2h1.54a1,1,0,1,1,0,2Z"/><path class="cls-1" d="M66.7,6.29a3.14,3.14,0,0,0-3.36-3.22H60.94V9.5h2.39A3.13,3.13,0,0,0,66.7,6.29ZM62.07,4.06h1.26a2.08,2.08,0,0,1,2.21,2.23,2.11,2.11,0,0,1-2.21,2.22H62.07Z"/><polygon class="cls-1" points="68.26 9.5 72.67 9.5 72.67 8.51 69.39 8.51 69.39 6.72 72.6 6.72 72.6 5.73 69.39 5.73 69.39 4.06 72.67 4.06 72.67 3.07 68.26 3.07 68.26 9.5"/><path class="cls-1" d="M79.23,5.09a2,2,0,0,0-2.1-2H74.3V9.5h1.13V7.1h1.12L78,9.5h1.3L77.7,7A1.8,1.8,0,0,0,79.23,5.09Zm-3.8,1v-2H77a1,1,0,1,1,0,2Z"/><polygon class="cls-1" points="82.27 9.5 83.4 9.5 83.4 4.06 85.34 4.06 85.34 3.07 80.32 3.07 80.32 4.06 82.27 4.06 82.27 9.5"/><polygon class="cls-1" points="91.18 8.51 87.91 8.51 87.91 6.72 91.11 6.72 91.11 5.73 87.91 5.73 87.91 4.06 91.18 4.06 91.18 3.07 86.78 3.07 86.78 9.5 91.18 9.5 91.18 8.51"/><polygon class="cls-1" points="92.82 9.5 97.22 9.5 97.22 8.51 93.94 8.51 93.94 6.72 97.15 6.72 97.15 5.73 93.94 5.73 93.94 4.06 97.22 4.06 97.22 3.07 92.82 3.07 92.82 9.5"/><path class="cls-1" d="M101.22,5.64c-.76-.19-1.42-.36-1.42-.86s.42-.8,1.09-.8a2.61,2.61,0,0,1,1.86.73l.65-.84A3.34,3.34,0,0,0,101,3c-1.41,0-2.34.82-2.34,1.88,0,1.36,1.23,1.67,2.28,1.93.78.2,1.47.38,1.47,1,0,.42-.37.88-1.29.88a2.77,2.77,0,0,1-2-.89l-.63.87a3.44,3.44,0,0,0,2.61,1c1.73,0,2.49-.92,2.49-2C103.54,6.23,102.28,5.9,101.22,5.64Z"/><polygon class="cls-1" points="19.42 13.22 18.68 12.03 17.96 12.03 19.11 13.78 19.11 15 19.74 15 19.74 13.78 20.88 12.03 20.15 12.03 19.42 13.22"/><path class="cls-1" d="M22.82,12a1.54,1.54,0,1,0,1.55,1.54A1.49,1.49,0,0,0,22.82,12Zm0,2.51a.9.9,0,0,1-.9-1,.9.9,0,1,1,1.8,0A.9.9,0,0,1,22.82,14.49Z"/><path class="cls-1" d="M27.29,13.79a.7.7,0,1,1-1.39,0V12h-.64v1.79A1.18,1.18,0,0,0,26.6,15a1.18,1.18,0,0,0,1.34-1.24V12h-.65Z"/><path class="cls-1" d="M31.35,13a.92.92,0,0,0-1-1H29v3h.63V13.94h.46L30.64,15h.73l-.67-1.13A.85.85,0,0,0,31.35,13Zm-1.09.4h-.66v-.8h.66a.4.4,0,1,1,0,.8Z"/><path class="cls-1" d="M35,12H33.85v3H35a1.49,1.49,0,1,0,0-3Zm0,2.41h-.54V12.58H35a.87.87,0,0,1,.93.93A.89.89,0,0,1,35,14.44Z"/><polygon class="cls-1" points="37.48 15 39.58 15 39.58 14.44 38.11 14.44 38.11 13.77 39.55 13.77 39.55 13.21 38.11 13.21 38.11 12.58 39.58 12.58 39.58 12.03 37.48 12.03 37.48 15"/><path class="cls-1" d="M41.65,13.16c-.32-.08-.59-.14-.59-.33s.15-.3.42-.3a1.27,1.27,0,0,1,.86.32l.35-.46A1.65,1.65,0,0,0,41.54,12c-.7,0-1.13.41-1.13.9,0,.68.62.81,1.11.92.32.08.6.14.6.36s-.17.33-.52.33a1.3,1.3,0,0,1-.94-.4l-.34.48a1.69,1.69,0,0,0,1.26.47c.8,0,1.19-.41,1.19-1S42.14,13.28,41.65,13.16Z"/><rect class="cls-1" x="43.63" y="12.03" width="0.63" height="2.97"/><path class="cls-1" d="M46.58,13.91h.78v.36a1,1,0,0,1-.63.23,1,1,0,0,1,0-2,.84.84,0,0,1,.7.39l.52-.28A1.39,1.39,0,0,0,46.73,12a1.54,1.54,0,1,0,0,3.08A1.65,1.65,0,0,0,48,14.49V13.35H46.58Z"/><polygon class="cls-1" points="50.96 13.89 49.59 12.03 48.94 12.03 48.94 15 49.57 15 49.57 13.06 50.98 15 51.59 15 51.59 12.03 50.96 12.03 50.96 13.89"/><circle class="cls-1" cx="52.9" cy="14.68" r="0.36"/><polygon class="cls-1" points="56.51 13.22 55.77 12.03 55.05 12.03 56.2 13.78 56.2 15 56.83 15 56.83 13.78 57.96 12.03 57.24 12.03 56.51 13.22"/><path class="cls-1" d="M59.91,12a1.54,1.54,0,1,0,1.55,1.54A1.49,1.49,0,0,0,59.91,12Zm0,2.51a.9.9,0,0,1-.9-1,.9.9,0,1,1,1.8,0A.9.9,0,0,1,59.91,14.49Z"/><path class="cls-1" d="M64.38,13.79a.7.7,0,1,1-1.39,0V12h-.64v1.79a1.34,1.34,0,0,0,2.68,0V12h-.65Z"/><path class="cls-1" d="M68.44,13a.92.92,0,0,0-1-1H66v3h.63V13.94h.46L67.73,15h.73l-.67-1.13A.85.85,0,0,0,68.44,13Zm-1.09.4h-.66v-.8h.66a.4.4,0,1,1,0,.8Z"/><path class="cls-1" d="M72.1,12H70.93v3H72.1a1.49,1.49,0,1,0,0-3Zm0,2.41h-.54V12.58h.54a.87.87,0,0,1,.93.93A.89.89,0,0,1,72.1,14.44Z"/><polygon class="cls-1" points="74.57 15 76.67 15 76.67 14.44 75.2 14.44 75.2 13.77 76.64 13.77 76.64 13.21 75.2 13.21 75.2 12.58 76.67 12.58 76.67 12.03 74.57 12.03 74.57 15"/><path class="cls-1" d="M78.44,12l-1.15,3H78l.19-.5h1.27l.18.5h.72l-1.14-3Zm-.07,1.91.46-1.28.46,1.28Z"/><path class="cls-1" d="M82.26,12H81.09v3h1.17a1.49,1.49,0,1,0,0-3Zm0,2.41h-.54V12.58h.54a.87.87,0,0,1,.93.93A.89.89,0,0,1,82.26,14.44Z"/><polygon class="cls-1" points="85.36 12.03 84.73 12.03 84.73 15 86.61 15 86.61 14.44 85.36 14.44 85.36 12.03"/><rect class="cls-1" x="87.5" y="12.03" width="0.63" height="2.97"/><polygon class="cls-1" points="91.18 13.89 89.81 12.03 89.16 12.03 89.16 15 89.79 15 89.79 13.06 91.21 15 91.82 15 91.82 12.03 91.18 12.03 91.18 13.89"/><polygon class="cls-1" points="92.84 15 94.94 15 94.94 14.44 93.48 14.44 93.48 13.77 94.91 13.77 94.91 13.21 93.48 13.21 93.48 12.58 94.94 12.58 94.94 12.03 92.84 12.03 92.84 15"/><circle class="cls-1" cx="96.15" cy="14.68" r="0.36"/><path class="cls-2" d="M1.23,7.72a6.13,6.13,0,0,0,.12,5.19l2.08-2.27Z"/><path class="cls-3" d="M3.48,10.63,1.4,12.9a6.12,6.12,0,0,0,6.36,3.34Z"/><path class="cls-4" d="M10.15,9.85l2.74,1.52a6.13,6.13,0,0,0-1.36-5.2h0Z"/><path class="cls-5" d="M9.23,12.29,7.76,16.24a6.08,6.08,0,0,0,2.84-1.17Z"/><path class="cls-6" d="M8.72,8.32a2.54,2.54,0,0,1,.65,1.11l.78.43,1.38-3.67h0L11.36,6,8,7.88a2.54,2.54,0,0,1,.67.48"/><path class="cls-6" d="M9.23,12.29l-.3-.62-.21.24a2.54,2.54,0,0,1-1.19.67l.23,3.66Z"/><path class="cls-7" d="M9.37,9.43a2.55,2.55,0,0,1-.44,2.25l.3.62,1.34,2.77a6.29,6.29,0,0,0,.65-.56,6.13,6.13,0,0,0,1.68-3.12L10.16,9.87Z"/><path class="cls-8" d="M3.48,10.63l4.28,5.61-.22-3.65a2.55,2.55,0,1,1-.53-5L5.19,3.2,2.56,5.83A6.12,6.12,0,0,0,1.23,7.72Z"/><path class="cls-9" d="M7,7.57A2.49,2.49,0,0,1,8,7.84l3.31-1.89-.14-.11L6.91,1.5,5.19,3.2Z"/><path class="cls-2" d="M1.23,7.72a6.13,6.13,0,0,0,.12,5.19l2.08-2.27Z"/><path class="cls-3" d="M3.48,10.63,1.4,12.9a6.12,6.12,0,0,0,6.36,3.34Z"/><path class="cls-4" d="M10.15,9.85l2.74,1.52a6.13,6.13,0,0,0-1.36-5.2h0Z"/><path class="cls-5" d="M9.23,12.29,7.76,16.24a6.08,6.08,0,0,0,2.84-1.17Z"/><path class="cls-6" d="M8.72,8.32a2.54,2.54,0,0,1,.65,1.11l.78.43,1.38-3.67h0L11.36,6,8,7.88a2.54,2.54,0,0,1,.67.48"/><path class="cls-6" d="M9.23,12.29l-.3-.62-.21.24a2.54,2.54,0,0,1-1.19.67l.23,3.66Z"/><path class="cls-7" d="M9.37,9.43a2.55,2.55,0,0,1-.44,2.25l.3.62,1.34,2.77a6.29,6.29,0,0,0,.65-.56,6.13,6.13,0,0,0,1.68-3.12L10.16,9.87Z"/><path class="cls-8" d="M3.48,10.63l4.28,5.61-.22-3.65a2.55,2.55,0,1,1-.53-5L5.19,3.2,2.56,5.83A6.12,6.12,0,0,0,1.23,7.72Z"/><path class="cls-9" d="M7,7.57A2.49,2.49,0,0,1,8,7.84l3.31-1.89-.14-.11L6.91,1.5,5.19,3.2Z"/></svg>