<svg xmlns="http://www.w3.org/2000/svg" id="Layer_1" data-name="Layer 1" viewBox="0 0 50 50">
  <defs>
    <style>
      .cls-1{fill:#ff7900;}
    </style>
  </defs>
  <path d="M30.8 36.9a1.64 1.64 0 0 0-1 .5c-.36.33-.64.74-1 1.08a4.54 4.54 0 0 1-2.35 1.1 12.16 12.16 0 0 1-2.3.12 3.33 3.33 0 0 1-.63-.14c-1.18-.4-1.95-1.48-3-2.13a.35.35 0 0 0-.3-.07.3.3 0 0 0-.1.1 1.16 1.16 0 0 0 0 1.25 2.86 2.86 0 0 0 .93 1 10.64 10.64 0 0 0 5.4 1.9 3.73 3.73 0 0 0 1.26-.1 4.4 4.4 0 0 0 1-.4 7.38 7.38 0 0 0 2.2-1.7 5.84 5.84 0 0 0 .6-1 1.2 1.2 0 0 0 .2-.7.82.82 0 0 0-.8-.6z" class="cls-1"/>
  <path d="M43.2 23.65a3.65 3.65 0 0 1-.88-.72 2.82 2.82 0 0 1-.38-.86l-.25-.75a9.67 9.67 0 0 1 0-2.25 6.18 6.18 0 0 1 1.4-3.38 12.28 12.28 0 0 1-3.6-2 5.73 5.73 0 0 0 .7-3.8 9 9 0 0 1-3.1.4 25.67 25.67 0 0 0 .2-2.6 6 6 0 0 1-3 1.1 7.44 7.44 0 0 0-.2-3.4.46.46 0 0 1-.2.2 8.75 8.75 0 0 1-4.4 1.6 3.53 3.53 0 0 0 .3-.66A4.5 4.5 0 0 0 30 5.1a4.66 4.66 0 0 0-1.3-3.5 2.77 2.77 0 0 1 .3 2.1 8.26 8.26 0 0 1-.84 2 2.08 2.08 0 0 1-.7.9 2.12 2.12 0 0 1-.9.2A20.36 20.36 0 0 1 22 6.48c-2.8-.43-6.4-.88-9 .6a7.77 7.77 0 0 0-2.64 2.8c-.2.3-.36.63-.5 1a4.65 4.65 0 0 1-.17-1.85 2.52 2.52 0 0 1 .8-1.7A5.14 5.14 0 0 0 7.8 12a.87.87 0 0 1-.1.5.9.9 0 0 1-.33.27A5 5 0 0 0 5 16.3a8.68 8.68 0 0 0 .2 2.7c.2 1.28.47 2.55.8 3.8a1.55 1.55 0 0 1 0 1.34c-.25.5-.55 1-.77 1.5A13 13 0 0 0 4 29.5a4.5 4.5 0 0 0 1.28 3.76c.33.3.73.53 1.08.8a8.42 8.42 0 0 1 2.13 3 17.9 17.9 0 0 0 3 5.08 15.1 15.1 0 0 0 4 2.55c2.1 1 4.6 2.1 6.8 1.8a4.92 4.92 0 0 0 .2.5 2.4 2.4 0 0 0 3.52.7 2.62 2.62 0 0 0 1.6-2.7 2 2 0 0 0-1.9-1.9 3 3 0 0 0-2.28.23 1.67 1.67 0 0 0-1.3 1 2.43 2.43 0 0 0-.13.7 11.45 11.45 0 0 1-6.5-2.3 22.38 22.38 0 0 1-4.8-5 14 14 0 0 1-2.3-4 16 16 0 0 1-.54-5.2l.35-4a30.34 30.34 0 0 0 11.9-1.2A17.8 17.8 0 0 0 30 16a18.28 18.28 0 0 1 9 4.47 7.35 7.35 0 0 1 2.4 3.6 9.06 9.06 0 0 1 .1 2.2l-.36 9.16s.67-.35 1.44-.83a2.68 2.68 0 0 0 .5-.25 6.9 6.9 0 0 0 .84-.7 3.6 3.6 0 0 0 .48-.54 6.6 6.6 0 0 0 1.5-3.2 6.74 6.74 0 0 0-2.77-6.3z" class="cls-1"/>
  <path d="M30.42 27.4a3.18 3.18 0 0 0-.6 4.72A2.94 2.94 0 0 0 33 33.25a3.37 3.37 0 0 0 2.4-4.37 3.6 3.6 0 0 0-4.98-1.47zm3.9 2.13a.4.4 0 0 1-.18.14.48.48 0 0 1-.15 0 1.18 1.18 0 0 1-.6-.07.76.76 0 0 1-.4-.5c-.1-.33 0-.8.4-.9a1.22 1.22 0 0 1 .6.13.8.8 0 0 1 .2 1.18zM20.47 32a3 3 0 0 0 .53-1.38 1.58 1.58 0 0 0 .17-.82 2.63 2.63 0 0 0-.7-1.6 2.45 2.45 0 0 0-.78-.77A3.37 3.37 0 0 0 15 28.5a3.1 3.1 0 0 0 1.47 4.76 2 2 0 0 0 .53.1 2.9 2.9 0 0 0 3.4-1.32zm-.36-2.7a.75.75 0 0 1-.1.5.67.67 0 0 1-.5.17.85.85 0 0 1-.6-.36 1.44 1.44 0 0 1-.1-1 .55.55 0 0 1 .1-.2.52.52 0 0 1 .6 0l.3.2a.86.86 0 0 1 .27.2 1.08 1.08 0 0 1 .1.2 1 1 0 0 1 .1.6z" class="cls-1"/>
</svg>
