<?xml version="1.0" encoding="utf-8"?>
<!-- Generator: Adobe Illustrator 21.0.0, SVG Export Plug-In . SVG Version: 6.00 Build 0)  -->
<svg version="1.1" id="Layer_1" xmlns="http://www.w3.org/2000/svg" xmlns:xlink="http://www.w3.org/1999/xlink" x="0px" y="0px"
	 viewBox="0 0 138.3 41.5" enable-background="new 0 0 138.3 41.5" xml:space="preserve">
<g>
	<polygon fill="#FFFFFF" points="77.4,20.6 83.2,20.6 80.3,12.6 	"/>
	<path fill="#FFFFFF" d="M102.8,4.6H85.5h-0.4h-3.4h-2.8h-3.4H75H52.6v1.5c-2-1.2-4.4-1.8-7.1-1.8c-4.1,0-7.6,1.6-10.1,4.2
		c-1.8-2.4-4.8-3.9-8.3-3.9H14.3v26.7h12v-0.2l0.1,0.2h14l-0.4-0.7c1.6,0.7,3.5,1,5.4,1c5.7,0,10.4-3.1,12.5-7.8v7.4h6.7h5.4h7.9
		l1.2-3.1h2.3l1.1,3.1h7.9h5.3h6.9H124V19.7v-3.5V4.6h-16H102.8z M28.9,27.2l-3.6-6.6h-2.9v6.6h-4V8.6h8.7c3.9,0,6.2,2.5,6.2,6
		c0,3.3-2.1,5-4.1,5.5l4.2,7.1H28.9z M45.5,27.6c-5.6,0-9.7-4-9.7-9.6c0-5.6,4.1-9.6,9.7-9.6c5.6,0,9.7,4,9.7,9.6
		C55.2,23.5,51.1,27.6,45.5,27.6z M66,12.1v15.1h-4V12.1h-5.4V8.6h14.8v3.5H66z M85.4,27.2l-1.1-3.1h-8l-1.2,3.1h-4.5l7.2-18.6h5
		l7.2,18.6H85.4z M103.9,12.1h-5.4v15.1h-4V12.1h-5.4V8.6h14.8V12.1z M120,12.1h-9.2v3.9h9v3.5h-9v4.2h9.2v3.5h-13.1V8.6H120V12.1z"
		/>
	<path fill="#FFFFFF" d="M26.5,12.1h-4.1v5h4.1c1.6,0,2.8-0.9,2.8-2.5S28.1,12.1,26.5,12.1z"/>
	<path fill="#FFFFFF" d="M45.5,11.8c-3.4,0-5.6,2.6-5.6,6.1c0,3.5,2.2,6.1,5.6,6.1c3.4,0,5.7-2.6,5.7-6.1
		C51.2,14.5,48.9,11.8,45.5,11.8z"/>
	<path fill="#424242" d="M33.3,14.6c0-3.5-2.4-6-6.2-6h-8.7v18.6h4v-6.6h2.9l3.6,6.6h4.5l-4.2-7.1C31.2,19.7,33.3,17.9,33.3,14.6z
		 M26.5,17.1h-4.1v-5h4.1c1.6,0,2.8,0.9,2.8,2.5S28.1,17.1,26.5,17.1z"/>
	<path fill="#424242" d="M45.5,8.3c-5.6,0-9.7,4-9.7,9.6c0,5.6,4.1,9.6,9.7,9.6c5.6,0,9.7-4,9.7-9.6C55.2,12.3,51.1,8.3,45.5,8.3z
		 M45.5,24c-3.4,0-5.6-2.6-5.6-6.1c0-3.5,2.2-6.1,5.6-6.1c3.4,0,5.7,2.6,5.7,6.1C51.2,21.4,48.9,24,45.5,24z"/>
	<polygon fill="#424242" points="71.4,8.6 56.6,8.6 56.6,12.1 62,12.1 62,27.2 66,27.2 66,12.1 71.4,12.1 	"/>
	<path fill="#424242" d="M77.8,8.6l-7.2,18.6h4.5l1.2-3.1h8l1.1,3.1h4.5L82.7,8.6H77.8z M77.4,20.6l2.9-8l2.9,8H77.4z"/>
	<polygon fill="#424242" points="89.1,12.1 94.5,12.1 94.5,27.2 98.5,27.2 98.5,12.1 103.9,12.1 103.9,8.6 89.1,8.6 	"/>
	<polygon fill="#424242" points="106.9,27.2 120,27.2 120,23.7 110.8,23.7 110.8,19.5 119.8,19.5 119.8,16.1 110.8,16.1 110.8,12.1 
		120,12.1 120,8.6 106.9,8.6 	"/>
</g>
</svg>
