<?xml version="1.0" encoding="utf-8"?>
<!-- Generator: Adobe Illustrator 21.0.0, SVG Export Plug-In . SVG Version: 6.00 Build 0)  -->
<svg version="1.1" id="Layer_1" xmlns="http://www.w3.org/2000/svg" xmlns:xlink="http://www.w3.org/1999/xlink" x="0px" y="0px"
	 viewBox="0 0 138.3 152" enable-background="new 0 0 138.3 152" xml:space="preserve">
<g>
	<path fill="#FF7900" d="M19,96h9.7c0-2.6,2.8-5.6,7.5-8.1V77.2C25.6,81.7,19,88.3,19,96z"/>
	<path fill="#FF7900" d="M102.1,77.2V88c4.9,2.6,7.5,5.6,7.5,8.1c0,3.1-4,6.7-10.3,9.5c-8,3.5-18.6,5.4-30.1,5.4v-10V100l-1.2,0.9
		l-22.5,14.8l23.7,15.6v-10.8c28.6,0,50.1-10.5,50.1-24.5C119.3,88.3,112.7,81.7,102.1,77.2z"/>
	<path fill="#FFFFFF" d="M108.5,71.3c-2-1-4.2-1.9-6.5-2.7V55l1.7,0.8l6.7,3l3.7-6.4l10.7-18.6l4.2-7.3l-7.5-3.9L93.2,7.8l-1.8-0.9
		h-2h-9h-6.1l-1.7,5.8c-0.4,1.5-1.9,2.6-3.4,2.6c-1.6,0-3-1.1-3.4-2.6L64,6.9H58h-9h-2l-1.8,0.9L16.7,22.6l-7.5,3.9l4.2,7.3
		l10.7,18.6l3.7,6.4l6.7-3l1.7-0.8v13.6c-2.3,0.8-4.4,1.7-6.5,2.7C17.6,77.2,10.9,86,10.9,96v8.1H19h9.7h8.1v-3.2h7.5h8.9L41,109
		l-10.2,6.8l10.2,6.8l23.7,15.6l12.5,8.3v-15v-3c11.9-0.8,22.8-3.4,31.3-7.6c12.2-6,18.9-14.8,18.9-24.8S120.7,77.2,108.5,71.3z
		 M36.3,87.9c-4.7,2.5-7.5,5.5-7.5,8.1H19c0-7.7,6.6-14.4,17.3-18.8V87.9z M44.4,92.8V42.4l-13.2,6L20.4,29.8L48.9,15h9
		c1.4,4.9,5.9,8.4,11.2,8.4S79,19.8,80.4,15h9l28.5,14.8l-10.7,18.6l-13.2-6v50.4H77.3H55.8H44.4z M69.2,120.6v10.8l-23.7-15.6
		l22.5-14.8l1.2-0.9v0.9v10c11.4,0,22.1-1.9,30.1-5.4c6.4-2.8,10.3-6.4,10.3-9.5c0-2.5-2.7-5.4-7.5-8.1V77.2
		c10.7,4.4,17.3,11.1,17.3,18.8C119.3,110,97.8,120.6,69.2,120.6z"/>
	<path fill="#424242" d="M77.3,92.8H94V42.4l13.2,6l10.7-18.6L89.4,15h-9c-1.4,4.9-5.9,8.4-11.2,8.4S59.4,19.8,58,15h-9L20.4,29.8
		l10.7,18.6l13.2-6v50.4h11.5H77.3z"/>
</g>
</svg>
